<svg version="1.1" xmlns="http://www.w3.org/2000/svg" xmlns:xlink="http://www.w3.org/1999/xlink" width="179.13068" height="292.96636" viewBox="0,0,179.13068,292.96636"><defs><linearGradient x1="199.49678" y1="175.08976" x2="201.29461" y2="347.08196" gradientUnits="userSpaceOnUse" id="color-1"><stop offset="0" stop-color="#dedede"/><stop offset="1" stop-color="#d3d3d3"/></linearGradient><linearGradient x1="232.16815" y1="260.20807" x2="158.39664" y2="295.01354" gradientUnits="userSpaceOnUse" id="color-2"><stop offset="0" stop-color="#2b90de"/><stop offset="1" stop-color="#00d2de"/></linearGradient><linearGradient x1="232.16815" y1="260.20807" x2="158.39664" y2="295.01354" gradientUnits="userSpaceOnUse" id="color-3"><stop offset="0" stop-color="#2b90de"/><stop offset="1" stop-color="#2acbde"/></linearGradient><linearGradient x1="180.18558" y1="302.18948" x2="170.46703" y2="321.04226" gradientUnits="userSpaceOnUse" id="color-4"><stop offset="0" stop-color="#7b98af"/><stop offset="1" stop-color="#dddede"/></linearGradient></defs><g transform="translate(-76.45905,-161.1446)"><g data-paper-data="{&quot;isPaintingLayer&quot;:true}" fill-rule="nonzero" stroke-linejoin="miter" stroke-miterlimit="10" stroke-dasharray="" stroke-dashoffset="0" style="mix-blend-mode: normal"><path d="M242.08973,174.6446l-83.38809,172.88262" data-paper-data="{&quot;index&quot;:null}" fill="none" stroke="url(#color-1)" stroke-width="27" stroke-linecap="round"/><path d="M230.06885,258.47813c1.92199,1.48272 10.25678,-7.63832 10.64324,-5.39442c2.9277,16.99762 -53.92432,76.19011 -70.07895,69.72748c-18.28728,-7.31578 3.51962,-139.37946 14.12536,-82.45939c42.35748,16.74796 -57.91756,-21.53551 41.94778,15.53447c1.12551,0.4178 2.08777,1.60842 3.36253,2.59186z" data-paper-data="{&quot;index&quot;:null}" fill="url(#color-2)" stroke="url(#color-3)" stroke-width="2" stroke-linecap="round"/><path d="M87.45905,414.06971c0,0 -6.43115,-20.93793 10.17871,-35.54232c16.60986,-14.6044 51.52278,-18.7094 51.52278,-18.7094" fill="none" stroke="#c1c1c1" stroke-width="22" stroke-linecap="round"/><path d="M150.51224,359.80133c0,0 26.83663,25.11902 33.21254,47.54565c6.37592,22.42663 -9.52748,35.76397 -9.52748,35.76397" data-paper-data="{&quot;index&quot;:null}" fill="none" stroke="#c1c1c1" stroke-width="22" stroke-linecap="round"/><path d="M179.67787,303.17437c12.33071,7.86501 20.37844,18.02031 17.97515,22.68242c-2.40328,4.66211 -14.34765,2.06561 -26.67836,-5.7994c-12.33071,-7.86501 -20.37844,-18.02028 -17.97515,-22.68239c2.40329,-4.66211 14.34765,-2.06564 26.67837,5.79937z" data-paper-data="{&quot;index&quot;:null}" fill="#b9b9b9" stroke="url(#color-4)" stroke-width="17.5" stroke-linecap="butt"/></g></g></svg>