<svg version="1.1" xmlns="http://www.w3.org/2000/svg" xmlns:xlink="http://www.w3.org/1999/xlink" width="252.42977" height="109.23194" viewBox="0,0,252.42977,109.23194"><g transform="translate(-113.72548,-126.76773)"><g data-paper-data="{&quot;isPaintingLayer&quot;:true}" fill-rule="nonzero" stroke-width="10" stroke-linejoin="miter" stroke-miterlimit="10" stroke-dasharray="" stroke-dashoffset="0" style="mix-blend-mode: normal"><path d="M185.75,191.5l1.5,-41l29.5,-12.5l135.5,1.5c0,0 0,0.96296 0,2c0,3.62963 0,24.5 0,24.5l-0.5,51l-106,-3c0,0 -33.87306,12.21232 -56.5,15.5c-0.23853,0.03466 -3.09763,0.19379 -8.88294,0.40366c-9.2713,0.33632 -26.05767,0.80294 -51.61706,1.09634c-23.03143,0.26438 0.83334,-38.5 0.83334,-38.5c0,0 19.93487,-0.35492 29.52354,-0.52564c9.10891,-0.16217 26.64312,-0.47436 26.64312,-0.47436z" fill="#2f97ff" stroke="#2f97ff" stroke-linecap="round"/><path d="M361.15525,143.8034c-0.56802,24.01383 0.38578,42.6276 0,69.90481c-0.24038,16.99649 -50.62149,10.93573 -50.57114,0c0.1183,-25.69287 0.0369,-44.90754 0,-69.90481c-0.02333,-15.80254 50.95647,-16.29072 50.57114,0z" data-paper-data="{&quot;index&quot;:null}" fill="#004cda" stroke="#679cff" stroke-linecap="butt"/><path d="M200.03554,228.28687l2.33333,-25.58334h48l15.37583,14.12983z" fill="#ffffff" stroke="#cccccc" stroke-linecap="butt"/><path d="M215.90929,152.76208c12.85269,0.13362 41.47194,0.15796 56.06941,0.17093c9.09572,0.00808 -12.45649,26.34094 -18.30803,26.39155c-13.74787,0.11891 -24.02816,0.29872 -37.40275,0.49573c-8.45503,0.12455 -9.07775,-27.14886 -0.35863,-27.05821z" data-paper-data="{&quot;index&quot;:null}" fill="#004cda" stroke="#679cff" stroke-linecap="butt"/><path d="M229.875,153.45353l-0.25,21.75" fill="none" stroke="#679cff" stroke-linecap="round"/><path d="M248.375,152.95353l0.25,23.25" fill="none" stroke="#679cff" stroke-linecap="round"/></g></g></svg>