<svg version="1.1" xmlns="http://www.w3.org/2000/svg" xmlns:xlink="http://www.w3.org/1999/xlink" width="136.7512" height="333.54612" viewBox="0,0,136.7512,333.54612"><defs><linearGradient x1="235.72895" y1="-41.66371" x2="325.39745" y2="139.01257" gradientUnits="userSpaceOnUse" id="color-1"><stop offset="0" stop-color="#dedede"/><stop offset="1" stop-color="#d3d3d3"/></linearGradient><linearGradient x1="312.39669" y1="27.50709" x2="254.80635" y2="98.76244" gradientUnits="userSpaceOnUse" id="color-2"><stop offset="0" stop-color="#2b90de"/><stop offset="1" stop-color="#00d2de"/></linearGradient><linearGradient x1="312.39669" y1="27.50709" x2="254.80635" y2="98.76244" gradientUnits="userSpaceOnUse" id="color-3"><stop offset="0" stop-color="#2b90de"/><stop offset="1" stop-color="#2acbde"/></linearGradient><linearGradient x1="278.76774" y1="95.43361" x2="281.31536" y2="119.12026" gradientUnits="userSpaceOnUse" id="color-4"><stop offset="0" stop-color="#7b98af"/><stop offset="1" stop-color="#dddede"/></linearGradient><linearGradient x1="222.81695" y1="171.89085" x2="337.29167" y2="171.89085" gradientUnits="userSpaceOnUse" id="color-5"><stop offset="0" stop-color="#1ea2de"/><stop offset="1" stop-color="#08c5de"/></linearGradient><linearGradient x1="231.81138" y1="190.51571" x2="330.65939" y2="190.51571" gradientUnits="userSpaceOnUse" id="color-6"><stop offset="0" stop-color="#1ea2de"/><stop offset="1" stop-color="#08c5de"/></linearGradient><linearGradient x1="222.78511" y1="171.48269" x2="237.3148" y2="239.97844" gradientUnits="userSpaceOnUse" id="color-7"><stop offset="0" stop-color="#1ea2de"/><stop offset="1" stop-color="#08c5de"/></linearGradient><linearGradient x1="337.1887" y1="173.10999" x2="314.61096" y2="233.27444" gradientUnits="userSpaceOnUse" id="color-8"><stop offset="0" stop-color="#08c5de"/><stop offset="1" stop-color="#1ea2de"/></linearGradient></defs><g transform="translate(-211.54047,82.61958)"><g data-paper-data="{&quot;isPaintingLayer&quot;:true}" fill-rule="nonzero" stroke-linejoin="miter" stroke-miterlimit="10" stroke-dasharray="" stroke-dashoffset="0" style="mix-blend-mode: normal"><path d="M280.4725,-63.86958l0.18143,225.08812" data-paper-data="{&quot;index&quot;:null}" fill="none" stroke="url(#color-1)" stroke-width="37.5" stroke-linecap="round"/><path d="M309.42819,26.78374c2.66834,0.55998 6.63888,-12.73763 8.12643,-10.65733c11.26873,15.7581 -17.2917,103.40528 -36.78707,104.76586c-22.06906,1.54021 -64.56629,-142.66968 -26.01984,-90.29233c51.0206,-3.76677 -69.09599,6.53075 50.01319,-4.79368c1.3424,-0.12762 2.89745,0.60606 4.66727,0.97752z" data-paper-data="{&quot;index&quot;:null}" fill="url(#color-2)" stroke="url(#color-3)" stroke-width="2" stroke-linecap="round"/><path d="M278.90083,96.67105c16.42529,-0.25188 30.25135,4.29244 30.88135,10.14992c0.63,5.85748 -12.17468,10.81008 -28.59997,11.06195c-16.42529,0.25188 -30.25135,-4.29241 -30.88135,-10.14988c-0.63,-5.85748 12.17468,-10.81011 28.59997,-11.06199z" data-paper-data="{&quot;index&quot;:null}" fill="#b9b9b9" stroke="url(#color-4)" stroke-width="20" stroke-linecap="butt"/><path d="M222.81695,171.48201l114.47472,0.81768" fill="none" stroke="url(#color-5)" stroke-width="22" stroke-linecap="round"/><path d="M231.81138,190.17501l98.84801,0.6814" fill="none" stroke="url(#color-6)" stroke-width="21" stroke-linecap="round"/><path d="M237.5594,239.92654l-15.01893,-68.39196" fill="none" stroke="url(#color-7)" stroke-width="22" stroke-linecap="round"/><path d="M336.9738,173.02937l-22.14793,60.32572" fill="none" stroke="url(#color-8)" stroke-width="22" stroke-linecap="round"/><path d="M280.91802,164.71221v31.2534" fill="none" stroke="#24f9ff" stroke-width="4.5" stroke-linecap="round"/><path d="M306.25135,164.71221v31.2534" fill="none" stroke="#24f9ff" stroke-width="4.5" stroke-linecap="round"/><path d="M254.25135,165.04554v31.2534" fill="none" stroke="#24f9ff" stroke-width="4.5" stroke-linecap="round"/></g></g></svg>