<svg version="1.1" xmlns="http://www.w3.org/2000/svg" xmlns:xlink="http://www.w3.org/1999/xlink" width="318.43204" height="318.43201" viewBox="0,0,318.43204,318.43201"><defs><linearGradient x1="163.20901" y1="180.87966" x2="316.79105" y2="180.87966" gradientUnits="userSpaceOnUse" id="color-1"><stop offset="0" stop-color="#00c1ff"/><stop offset="1" stop-color="#007fff"/></linearGradient><linearGradient x1="88.28403" y1="180.00002" x2="391.71604" y2="180.00002" gradientUnits="userSpaceOnUse" id="color-2"><stop offset="0" stop-color="#00f5ff"/><stop offset="1" stop-color="#0020ff"/></linearGradient><linearGradient x1="175.67713" y1="180.00002" x2="304.3229" y2="180.00002" gradientUnits="userSpaceOnUse" id="color-3"><stop offset="0" stop-color="#00f5ff"/><stop offset="1" stop-color="#00cfff"/></linearGradient></defs><g transform="translate(-80.78403,-20.78403)"><g data-paper-data="{&quot;isPaintingLayer&quot;:true}" fill-rule="nonzero" stroke-linecap="butt" stroke-linejoin="miter" stroke-miterlimit="10" stroke-dasharray="" stroke-dashoffset="0" style="mix-blend-mode: normal"><path d="M316.79105,180.87966c0,44.20787 -34.38051,80.04543 -76.791,80.04543c-42.41049,0 -76.79104,-35.83756 -76.79104,-80.04543c0,-44.20787 34.38051,-80.04543 76.79104,-80.04543c42.41053,0 76.791,35.83756 76.791,80.04543z" fill="#00f3ff" stroke="url(#color-1)" stroke-width="6.5"/><path d="M88.28403,180.00002c0,-83.79042 67.92559,-151.71599 151.71602,-151.71599c83.79043,0 151.71602,67.92556 151.71602,151.71599c0,83.79042 -67.92559,151.71602 -151.71602,151.71602c-83.79042,0 -151.71602,-67.9256 -151.71602,-151.71602z" fill="url(#color-2)" stroke="#000000" stroke-width="15"/><path d="M175.67713,180.00002c0,-35.52455 28.79834,-64.32289 64.32293,-64.32289c35.52456,0 64.32288,28.79833 64.32288,64.32293c0,35.52455 -28.79833,64.32292 -64.32288,64.32292c-35.52455,0 -64.32289,-28.79833 -64.32289,-64.32289z" fill="url(#color-3)" stroke="none" stroke-width="1"/></g></g></svg>