<svg version="1.1" xmlns="http://www.w3.org/2000/svg" xmlns:xlink="http://www.w3.org/1999/xlink" width="126.4712" height="363.02933" viewBox="0,0,126.4712,363.02933"><defs><linearGradient x1="240.43286" y1="184.24136" x2="240.43286" y2="253.22529" gradientUnits="userSpaceOnUse" id="color-1"><stop offset="0" stop-color="#b9b9b9"/><stop offset="1" stop-color="#dbdbdb"/></linearGradient><linearGradient x1="240.00006" y1="-8.83395" x2="240.00006" y2="223.02874" gradientUnits="userSpaceOnUse" id="color-2"><stop offset="0" stop-color="#00c1ff"/><stop offset="1" stop-color="#00fbff"/></linearGradient><linearGradient x1="240.09877" y1="93.3003" x2="240.09877" y2="166.31518" gradientUnits="userSpaceOnUse" id="color-3"><stop offset="0" stop-color="#e0e0e0"/><stop offset="1" stop-color="#c6c6c6"/></linearGradient><linearGradient x1="240.68488" y1="259.51238" x2="240.68488" y2="349.9454" gradientUnits="userSpaceOnUse" id="color-4"><stop offset="0" stop-color="#00f3ff"/><stop offset="1" stop-color="#00b2ff"/></linearGradient><linearGradient x1="241.17523" y1="279.34054" x2="241.17523" y2="327.39107" gradientUnits="userSpaceOnUse" id="color-5"><stop offset="0" stop-color="#00c1ff"/><stop offset="1" stop-color="#007fff"/></linearGradient></defs><g transform="translate(-176.76474,8.83393)"><g data-paper-data="{&quot;isPaintingLayer&quot;:true}" fill-rule="nonzero" stroke-linejoin="miter" stroke-miterlimit="10" stroke-dasharray="" stroke-dashoffset="0" style="mix-blend-mode: normal"><g><path d="M239.95381,184.24135l0.95811,68.98394" fill="#00f3ff" stroke="url(#color-1)" stroke-width="29" stroke-linecap="round"/><path d="M303.23528,107.0974c0,64.02711 -28.31139,115.93135 -63.23527,115.93135c-34.92388,0 -63.23527,-51.90424 -63.23527,-115.93134c0,-64.02711 28.3114,-115.93134 63.23528,-115.93134c34.92388,0 63.23527,51.90424 63.23527,115.93134z" fill="url(#color-2)" stroke="#000000" stroke-width="0" stroke-linecap="butt"/><path d="M299.67323,67.6399l-119.54759,0.4662l11.38504,-37.97233l96.59676,0.9324z" fill="#000000" stroke="#000000" stroke-width="0.5" stroke-linecap="round"/><path d="M198.78572,63.84971v-17.08754h12.3501v17.08754z" fill="#00f3ff" stroke="none" stroke-width="0" stroke-linecap="butt"/><path d="M210.82139,46.87877v-17.08754h12.35011v17.08754z" fill="#00f3ff" stroke="none" stroke-width="0" stroke-linecap="butt"/><path d="M223.39559,64.03297v-17.08754h12.3501v17.08754z" fill="#00f3ff" stroke="none" stroke-width="0" stroke-linecap="butt"/><path d="M188.33064,165.83333l16.40557,-42.94089l-21.8997,-29.59214h114.52453l-22.06196,30.47965l16.93729,42.53523" fill="none" stroke="url(#color-3)" stroke-width="6" stroke-linecap="round"/><path d="M245.50157,64.3491v-17.08754h12.3501v17.08754z" fill="#00f3ff" stroke="none" stroke-width="0" stroke-linecap="butt"/><path d="M257.5372,47.37815v-17.08754h12.35012v17.08754z" fill="#00f3ff" stroke="none" stroke-width="0" stroke-linecap="butt"/><path d="M270.11136,64.53237v-17.08754h12.3501v17.08754z" fill="#00f3ff" stroke="none" stroke-width="0" stroke-linecap="butt"/></g><g stroke-linecap="butt"><path d="M283.34191,304.72888c0,24.9724 -19.09823,45.21652 -42.65707,45.21652c-23.55884,0 -42.6571,-20.24412 -42.6571,-45.21652c0,-24.9724 19.09826,-45.2165 42.6571,-45.2165c23.55884,0 42.65707,20.24409 42.65707,45.2165z" fill="url(#color-4)" stroke="#000000" stroke-width="8.5"/><path d="M263.72947,303.36579c0,13.2688 -10.09787,24.02528 -22.55432,24.02528c-12.45645,0 -22.55435,-10.75649 -22.55435,-24.02528c0,-13.2688 10.0979,-24.02526 22.55435,-24.02526c12.45645,0 22.55432,10.75647 22.55432,24.02526z" fill="#00f3ff" stroke="url(#color-5)" stroke-width="6.5"/></g></g></g></svg>