<svg version="1.1" xmlns="http://www.w3.org/2000/svg" xmlns:xlink="http://www.w3.org/1999/xlink" width="416.68358" height="411.11784" viewBox="0,0,416.68358,411.11784"><defs><linearGradient x1="118.65604" y1="311.63747" x2="361.34401" y2="41.36249" gradientUnits="userSpaceOnUse" id="color-1"><stop offset="0" stop-color="#00f3ff"/><stop offset="1" stop-color="#00b2ff"/></linearGradient><linearGradient x1="263.62638" y1="90.68719" x2="214.41417" y2="261.74903" gradientUnits="userSpaceOnUse" id="color-2"><stop offset="0" stop-color="#00c1ff"/><stop offset="1" stop-color="#007fff"/></linearGradient></defs><g transform="translate(-31.6582,29.05895)"><g data-paper-data="{&quot;isPaintingLayer&quot;:true}" fill-rule="nonzero" stroke-linejoin="miter" stroke-miterlimit="10" stroke-dasharray="" stroke-dashoffset="0" style="mix-blend-mode: normal"><path d="M102.56259,56.75591c67.01647,-74.63441 182.87686,-81.52626 258.78139,-15.39347c75.90451,66.13278 83.10992,180.24727 16.09346,254.88167c-67.01646,74.63442 -182.87691,81.5261 -258.78144,15.3933c-75.90451,-66.13278 -83.10991,-180.24707 -16.09342,-254.88151z" fill="url(#color-1)" stroke="#000000" stroke-width="50" stroke-linecap="butt"/><path d="M352.75292,244.82923c-60.2335,88.61361 -158.04703,55.8867 -158.04703,55.8867" fill="none" stroke="#ffffff" stroke-width="18.5" stroke-linecap="round"/><path d="M123.54662,109.29686c60.2335,-88.61361 158.04703,-55.8867 158.04703,-55.8867" data-paper-data="{&quot;index&quot;:null}" fill="none" stroke="#ffffff" stroke-width="18.5" stroke-linecap="round"/><path d="M214.41417,261.74903c-49.23936,-14.16551 -78.13922,-63.94243 -64.54963,-111.17985c13.58958,-47.23742 64.52251,-74.04751 113.76186,-59.882c49.23936,14.16551 78.13922,63.94243 64.54963,111.17985c-13.58958,47.23742 -64.52251,74.04751 -113.76186,59.882z" fill="#00f3ff" stroke="url(#color-2)" stroke-width="6.5" stroke-linecap="butt"/></g></g></svg>