<svg version="1.1" xmlns="http://www.w3.org/2000/svg" xmlns:xlink="http://www.w3.org/1999/xlink" width="415.15243" height="413.01445" viewBox="0,0,415.15243,413.01445"><defs><linearGradient x1="246.45217" y1="358.00722" x2="233.54791" y2="-5.00724" gradientUnits="userSpaceOnUse" id="color-1"><stop offset="0" stop-color="#00f3ff"/><stop offset="1" stop-color="#00b2ff"/></linearGradient><linearGradient x1="197.44284" y1="98.32758" x2="280.75537" y2="255.62672" gradientUnits="userSpaceOnUse" id="color-2"><stop offset="0" stop-color="#00c1ff"/><stop offset="1" stop-color="#007fff"/></linearGradient></defs><g transform="translate(-31.89996,30.00724)"><g data-paper-data="{&quot;isPaintingLayer&quot;:true}" fill-rule="nonzero" stroke-linejoin="miter" stroke-miterlimit="10" stroke-dasharray="" stroke-dashoffset="0" style="mix-blend-mode: normal"><path d="M57.94772,185.70028c-3.56341,-100.24373 75.05548,-185.62638 175.60013,-190.70753c100.54463,-5.08115 184.94112,72.0633 188.50453,172.30702c3.56342,100.24373 -75.05563,185.62629 -175.60028,190.70744c-100.54463,5.08115 -184.94098,-72.06316 -188.50439,-172.30692z" fill="url(#color-1)" stroke="#000000" stroke-width="50" stroke-linecap="butt"/><path d="M368.59478,147.42262c18.14947,105.5985 -74.97865,149.93462 -74.97865,149.93462" fill="none" stroke="#ffffff" stroke-width="18.5" stroke-linecap="round"/><path d="M109.52314,208.95662c-18.14947,-105.5985 74.97865,-149.93462 74.97865,-149.93462" data-paper-data="{&quot;index&quot;:null}" fill="none" stroke="#ffffff" stroke-width="18.5" stroke-linecap="round"/><path d="M280.75537,255.62672c-45.27783,23.98112 -100.63292,8.20905 -123.63902,-35.22791c-23.00611,-43.43696 -4.95132,-98.09012 40.3265,-122.07124c45.27783,-23.98112 100.63292,-8.20905 123.63902,35.22791c23.00611,43.43696 4.95132,98.09012 -40.3265,122.07124z" fill="#00f3ff" stroke="url(#color-2)" stroke-width="6.5" stroke-linecap="butt"/></g></g></svg>