<svg version="1.1" xmlns="http://www.w3.org/2000/svg" xmlns:xlink="http://www.w3.org/1999/xlink" width="403.92288" height="411.68912" viewBox="0,0,403.92288,411.68912"><defs><linearGradient x1="173.93224" y1="345.67903" x2="306.06783" y2="7.32093" gradientUnits="userSpaceOnUse" id="color-1"><stop offset="0" stop-color="#00f3ff"/><stop offset="1" stop-color="#00b2ff"/></linearGradient><linearGradient x1="231.9387" y1="87.85995" x2="246.02878" y2="265.30139" gradientUnits="userSpaceOnUse" id="color-2"><stop offset="0" stop-color="#00c1ff"/><stop offset="1" stop-color="#007fff"/></linearGradient></defs><g transform="translate(-44.23061,29.3446)"><g data-paper-data="{&quot;isPaintingLayer&quot;:true}" fill-rule="nonzero" stroke-linejoin="miter" stroke-miterlimit="10" stroke-dasharray="" stroke-dashoffset="0" style="mix-blend-mode: normal"><path d="M69.23061,112.73874c36.48826,-93.43506 142.5239,-140.6322 236.83717,-105.41784c94.31325,35.21435 141.18993,139.50535 104.70167,232.94039c-36.48825,93.43506 -142.524,140.63206 -236.83728,105.4177c-94.31325,-35.21435 -141.18985,-139.50516 -104.70158,-232.94025z" fill="url(#color-1)" stroke="#000000" stroke-width="50" stroke-linecap="butt"/><path d="M369.58028,200.81173c-25.2224,104.13586 -128.29704,107.89836 -128.29704,107.89836" fill="none" stroke="#ffffff" stroke-width="18.5" stroke-linecap="round"/><path d="M107.3517,154.54381c25.2224,-104.13586 128.29704,-107.89836 128.29704,-107.89836" data-paper-data="{&quot;index&quot;:null}" fill="none" stroke="#ffffff" stroke-width="18.5" stroke-linecap="round"/><path d="M246.02878,265.30139c-51.0757,4.05576 -95.63491,-32.37802 -99.52576,-81.37712c-3.89086,-48.9991 34.36001,-92.00857 85.4357,-96.06433c51.0757,-4.05576 95.63491,32.37802 99.52576,81.37712c3.89086,48.9991 -34.36001,92.00857 -85.4357,96.06433z" fill="#00f3ff" stroke="url(#color-2)" stroke-width="6.5" stroke-linecap="butt"/></g></g></svg>