<svg version="1.1" xmlns="http://www.w3.org/2000/svg" xmlns:xlink="http://www.w3.org/1999/xlink" width="379.40925" height="395.2892" viewBox="0,0,379.40925,395.2892"><defs><linearGradient x1="75.29539" y1="253.04337" x2="404.70464" y2="99.95659" gradientUnits="userSpaceOnUse" id="color-1"><stop offset="0" stop-color="#00f3ff"/><stop offset="1" stop-color="#00b2ff"/></linearGradient><linearGradient x1="295.46355" y1="106.88794" x2="182.95646" y2="244.82325" gradientUnits="userSpaceOnUse" id="color-2"><stop offset="0" stop-color="#00c1ff"/><stop offset="1" stop-color="#007fff"/></linearGradient></defs><g transform="translate(-50.29539,29.6513)"><g data-paper-data="{&quot;isPaintingLayer&quot;:true}" fill-rule="nonzero" stroke-linejoin="miter" stroke-miterlimit="10" stroke-dasharray="" stroke-dashoffset="0" style="mix-blend-mode: normal"><path d="M160.71287,12.36213c90.9639,-42.27377 200.20273,-3.05636 243.99178,87.59441c43.78902,90.65076 5.54638,198.4076 -85.4175,240.68136c-90.96389,42.27378 -200.20272,3.0562 -243.99175,-87.59459c-43.78902,-90.65076 -5.54646,-198.40741 85.41748,-240.68119z" fill="url(#color-1)" stroke="#000000" stroke-width="50" stroke-linecap="butt"/><path d="M316.80608,283.65843c-90.22359,57.79403 -167.29168,-10.75557 -167.29168,-10.75557" fill="none" stroke="#ffffff" stroke-width="18.5" stroke-linecap="round"/><path d="M146.31702,80.05751c82.13724,-68.80348 167.30057,-10.61633 167.30057,-10.61633" data-paper-data="{&quot;index&quot;:null}" fill="none" stroke="#ffffff" stroke-width="18.5" stroke-linecap="round"/><path d="M182.95646,244.82325c-39.70404,-32.38465 -46.70495,-89.51547 -15.63698,-127.60524c31.06798,-38.08978 88.44004,-42.71471 128.14408,-10.33007c39.70404,32.38465 46.70495,89.51547 15.63698,127.60524c-31.06798,38.08978 -88.44004,42.71471 -128.14408,10.33007z" fill="#00f3ff" stroke="url(#color-2)" stroke-width="6.5" stroke-linecap="butt"/></g></g></svg>