<svg version="1.1" xmlns="http://www.w3.org/2000/svg" xmlns:xlink="http://www.w3.org/1999/xlink" width="411.12135" height="416.71672" viewBox="0,0,411.12135,416.71672"><defs><linearGradient x1="384.95943" y1="285.92243" x2="95.0406" y2="67.07753" gradientUnits="userSpaceOnUse" id="color-1"><stop offset="0" stop-color="#00f3ff"/><stop offset="1" stop-color="#00b2ff"/></linearGradient><linearGradient x1="152.49002" y1="160.25062" x2="327.1148" y2="194.74966" gradientUnits="userSpaceOnUse" id="color-2"><stop offset="0" stop-color="#00c1ff"/><stop offset="1" stop-color="#007fff"/></linearGradient></defs><g transform="translate(-34.43934,31.85835)"><g data-paper-data="{&quot;isPaintingLayer&quot;:true}" fill-rule="nonzero" stroke-linejoin="miter" stroke-miterlimit="10" stroke-dasharray="" stroke-dashoffset="0" style="mix-blend-mode: normal"><g><path d="M132.36713,323.61508c-80.05891,-60.43238 -96.77055,-175.28815 -37.32656,-256.53751c59.44398,-81.24935 172.53351,-98.12504 252.59242,-37.69266c80.05892,60.43238 96.77038,175.28821 37.3264,256.53757c-59.44398,81.24935 -172.53332,98.12502 -252.59226,37.69262z" fill="url(#color-1)" stroke="#000000" stroke-width="50" stroke-linecap="butt"/><path d="M298.50149,58.3489c93.41119,52.48612 69.1139,152.72674 69.1139,152.72674" fill="none" stroke="#ffffff" stroke-width="18.5" stroke-linecap="round"/><path d="M182.93504,298.24251c-93.41119,-52.48612 -69.1139,-152.72674 -69.1139,-152.72674" data-paper-data="{&quot;index&quot;:null}" fill="none" stroke="#ffffff" stroke-width="18.5" stroke-linecap="round"/><path d="M327.1148,194.74966c-9.93039,50.26493 -57.07165,83.28984 -105.29295,73.76319c-48.2213,-9.52665 -79.26222,-57.9973 -69.33183,-108.26223c9.93039,-50.26493 57.07165,-83.28984 105.29295,-73.76319c48.2213,9.52665 79.26222,57.9973 69.33183,108.26223z" fill="#00f3ff" stroke="url(#color-2)" stroke-width="6.5" stroke-linecap="butt"/></g></g></g></svg>