<svg version="1.1" xmlns="http://www.w3.org/2000/svg" xmlns:xlink="http://www.w3.org/1999/xlink" width="411.92728" height="407.78158" viewBox="0,0,411.92728,407.78158"><defs><linearGradient x1="66.68054" y1="122.21506" x2="413.31954" y2="230.7849" gradientUnits="userSpaceOnUse" id="color-1"><stop offset="0" stop-color="#00f3ff"/><stop offset="1" stop-color="#00b2ff"/></linearGradient><linearGradient x1="327.87649" y1="162.36602" x2="151.8229" y2="188.61726" gradientUnits="userSpaceOnUse" id="color-2"><stop offset="0" stop-color="#00c1ff"/><stop offset="1" stop-color="#007fff"/></linearGradient></defs><g transform="translate(-34.03643,23.24761)"><g data-paper-data="{&quot;isPaintingLayer&quot;:true}" fill-rule="nonzero" stroke-linejoin="miter" stroke-miterlimit="10" stroke-dasharray="" stroke-dashoffset="0" style="mix-blend-mode: normal"><path d="M291.87457,1.75239c95.72177,29.98076 150.09451,132.52212 121.44502,229.03248c-28.64952,96.51033 -129.47238,150.44348 -225.19413,120.46273c-95.72177,-29.98074 -150.0944,-132.52223 -121.44487,-229.03259c28.64952,-96.51033 129.4722,-150.4434 225.19399,-120.46262z" fill="url(#color-1)" stroke="#000000" stroke-width="50" stroke-linecap="butt"/><path d="M224.65104,307.44467c-105.62303,-18.00613 -116.46035,-120.5785 -116.46035,-120.5785" fill="none" stroke="#ffffff" stroke-width="18.5" stroke-linecap="round"/><path d="M235.65534,42.11702c107.05558,4.42141 130.85509,104.78135 130.85509,104.78135" data-paper-data="{&quot;index&quot;:null}" fill="none" stroke="#ffffff" stroke-width="18.5" stroke-linecap="round"/><path d="M151.8229,188.61726c-7.5563,-50.67622 25.72906,-97.63395 74.3449,-104.88302c48.61585,-7.24909 94.1524,27.95558 101.7087,78.63178c7.5563,50.67622 -25.72906,97.63395 -74.3449,104.88302c-48.61585,7.24909 -94.1524,-27.95558 -101.7087,-78.63178z" fill="#00f3ff" stroke="url(#color-2)" stroke-width="6.5" stroke-linecap="butt"/></g></g></svg>