<svg version="1.1" xmlns="http://www.w3.org/2000/svg" xmlns:xlink="http://www.w3.org/1999/xlink" width="416.14084" height="411.74962" viewBox="0,0,416.14084,411.74962"><defs><linearGradient x1="86.3725" y1="273.37666" x2="393.62753" y2="79.6233" gradientUnits="userSpaceOnUse" id="color-1"><stop offset="0" stop-color="#00f3ff"/><stop offset="1" stop-color="#00b2ff"/></linearGradient><linearGradient x1="286.15608" y1="100.39704" x2="192.11279" y2="251.52565" gradientUnits="userSpaceOnUse" id="color-2"><stop offset="0" stop-color="#00c1ff"/><stop offset="1" stop-color="#007fff"/></linearGradient></defs><g transform="translate(-31.92957,29.37482)"><g data-paper-data="{&quot;isPaintingLayer&quot;:true}" fill-rule="nonzero" stroke-linejoin="miter" stroke-miterlimit="10" stroke-dasharray="" stroke-dashoffset="0" style="mix-blend-mode: normal"><path d="M140.47398,23.78372c84.84618,-53.50354 198.18688,-28.50328 253.15354,55.83953c54.96664,84.3428 30.74467,196.08953 -54.10149,249.59306c-84.84617,53.50355 -198.18689,28.50312 -253.15354,-55.83971c-54.96664,-84.3428 -30.74472,-196.08933 54.10149,-249.59289z" fill="url(#color-1)" stroke="#000000" stroke-width="50" stroke-linecap="butt"/><path d="M329.81564,273.01556c-82.13724,68.80348 -167.30057,10.61633 -167.30057,10.61633" fill="none" stroke="#ffffff" stroke-width="18.5" stroke-linecap="round"/><path d="M146.31702,80.05751c82.13724,-68.80348 167.30057,-10.61633 167.30057,-10.61633" data-paper-data="{&quot;index&quot;:null}" fill="none" stroke="#ffffff" stroke-width="18.5" stroke-linecap="round"/><path d="M192.11279,251.52565c-43.50167,-27.06993 -57.71443,-82.84574 -31.74509,-124.57874c25.96934,-41.73301 82.28673,-53.61979 125.78839,-26.54987c43.50167,27.06993 57.71443,82.84574 31.74509,124.57874c-25.96934,41.73301 -82.28673,53.61979 -125.78839,26.54987z" fill="#00f3ff" stroke="url(#color-2)" stroke-width="6.5" stroke-linecap="butt"/></g></g></svg>