<svg version="1.1" xmlns="http://www.w3.org/2000/svg" xmlns:xlink="http://www.w3.org/1999/xlink" width="411.45332" height="398.44297" viewBox="0,0,411.45332,398.44297"><defs><linearGradient x1="403.41842" y1="255.75229" x2="76.5816" y2="97.24767" gradientUnits="userSpaceOnUse" id="color-1"><stop offset="0" stop-color="#00f3ff"/><stop offset="1" stop-color="#00b2ff"/></linearGradient><linearGradient x1="151" y1="177.51947" x2="329" y2="177.51947" gradientUnits="userSpaceOnUse" id="color-2"><stop offset="0" stop-color="#00c1ff"/><stop offset="1" stop-color="#007fff"/></linearGradient></defs><g transform="translate(-34.27334,31.75662)"><g data-paper-data="{&quot;isPaintingLayer&quot;:true}" fill-rule="nonzero" stroke-linejoin="miter" stroke-miterlimit="10" stroke-dasharray="" stroke-dashoffset="0" style="mix-blend-mode: normal"><g><path d="M162.92114,341.68635c-90.25353,-43.76986 -128.90904,-153.20879 -86.33956,-244.43864c42.56948,-91.22984 150.24386,-129.70396 240.4974,-85.9341c90.25354,43.76986 128.90889,153.20888 86.33941,244.43873c-42.56948,91.22984 -150.24368,129.7039 -240.49725,85.93403z" fill="url(#color-1)" stroke="#000000" stroke-width="50" stroke-linecap="butt"/><path d="M274.49276,49.25081c101.81253,33.38641 97.40408,136.43546 97.40408,136.43546" fill="none" stroke="#ffffff" stroke-width="18.5" stroke-linecap="round"/><path d="M207.61261,306.99408c-101.81253,-33.38641 -97.40408,-136.43546 -97.40408,-136.43546" data-paper-data="{&quot;index&quot;:null}" fill="none" stroke="#ffffff" stroke-width="18.5" stroke-linecap="round"/><path d="M329,177.51947c0,51.23647 -39.84666,92.77184 -89,92.77184c-49.15334,0 -89,-41.53537 -89,-92.77184c0,-51.23647 39.84666,-92.77184 89,-92.77184c49.15334,0 89,41.53537 89,92.77184z" fill="#00f3ff" stroke="url(#color-2)" stroke-width="6.5" stroke-linecap="butt"/></g></g></g></svg>