<svg version="1.1" xmlns="http://www.w3.org/2000/svg" xmlns:xlink="http://www.w3.org/1999/xlink" width="414.39055" height="407.42234" viewBox="0,0,414.39055,407.42234"><defs><linearGradient x1="272.38555" y1="355.21116" x2="207.61453" y2="-2.21118" gradientUnits="userSpaceOnUse" id="color-1"><stop offset="0" stop-color="#00f3ff"/><stop offset="1" stop-color="#00b2ff"/></linearGradient><linearGradient x1="186.68395" y1="105.22983" x2="291.66954" y2="248.97274" gradientUnits="userSpaceOnUse" id="color-2"><stop offset="0" stop-color="#00c1ff"/><stop offset="1" stop-color="#007fff"/></linearGradient></defs><g transform="translate(-29.46652,27.21118)"><g data-paper-data="{&quot;isPaintingLayer&quot;:true}" fill-rule="nonzero" stroke-linejoin="miter" stroke-miterlimit="10" stroke-dasharray="" stroke-dashoffset="0" style="mix-blend-mode: normal"><path d="M61.14306,211.6834c-17.88603,-98.69951 47.6915,-194.46336 146.47142,-213.89458c98.7799,-19.43122 193.35655,44.82833 211.24258,143.52783c17.88604,98.69951 -47.69166,194.46329 -146.47158,213.89451c-98.7799,19.43122 -193.3564,-44.82822 -211.24243,-143.52776z" fill="url(#color-1)" stroke="#000000" stroke-width="50" stroke-linecap="butt"/><path d="M363.10345,129.302c33.08871,101.90968 -52.72811,159.12867 -52.72811,159.12867" fill="none" stroke="#ffffff" stroke-width="18.5" stroke-linecap="round"/><path d="M115.51794,227.31201c-33.08871,-101.90968 52.72811,-159.12867 52.72811,-159.12867" data-paper-data="{&quot;index&quot;:null}" fill="none" stroke="#ffffff" stroke-width="18.5" stroke-linecap="round"/><path d="M291.66954,248.97274c-41.37573,30.21961 -98.41922,22.53951 -127.41018,-17.154c-28.99096,-39.69351 -18.95113,-96.3693 22.42459,-126.58891c41.37573,-30.21961 98.41922,-22.53951 127.41018,17.154c28.99096,39.69351 18.95113,96.3693 -22.42459,126.58891z" fill="#00f3ff" stroke="url(#color-2)" stroke-width="6.5" stroke-linecap="butt"/></g></g></svg>