<svg version="1.1" xmlns="http://www.w3.org/2000/svg" xmlns:xlink="http://www.w3.org/1999/xlink" width="411.76323" height="416.12982" viewBox="0,0,411.76323,416.12982"><defs><linearGradient x1="336.33506" y1="330.46773" x2="143.665" y2="22.53225" gradientUnits="userSpaceOnUse" id="color-1"><stop offset="0" stop-color="#00f3ff"/><stop offset="1" stop-color="#00b2ff"/></linearGradient><linearGradient x1="164.06011" y1="130.07619" x2="314.85657" y2="224.65115" gradientUnits="userSpaceOnUse" id="color-2"><stop offset="0" stop-color="#00c1ff"/><stop offset="1" stop-color="#007fff"/></linearGradient></defs><g transform="translate(-34.11843,31.56489)"><g data-paper-data="{&quot;isPaintingLayer&quot;:true}" fill-rule="nonzero" stroke-linejoin="miter" stroke-miterlimit="10" stroke-dasharray="" stroke-dashoffset="0" style="mix-blend-mode: normal"><g><path d="M86.9342,275.48758c-53.20439,-85.03408 -27.80513,-198.28603 56.73076,-252.95531c84.53587,-54.66927 196.19658,-30.05389 249.40097,54.98019c53.2044,85.03408 27.80495,198.28603 -56.73093,252.9553c-84.53587,54.66927 -196.1964,30.05394 -249.40081,-54.98018z" fill="url(#color-1)" stroke="#000000" stroke-width="50" stroke-linecap="butt"/><path d="M336.83132,87.02485c68.51378,82.37904 10.02705,167.33692 10.02705,167.33692" fill="none" stroke="#ffffff" stroke-width="18.5" stroke-linecap="round"/><path d="M143.22822,269.84276c-68.51378,-82.37904 -10.02705,-167.33692 -10.02705,-167.33692" data-paper-data="{&quot;index&quot;:null}" fill="none" stroke="#ffffff" stroke-width="18.5" stroke-linecap="round"/><path d="M314.85657,224.65115c-27.22296,43.40606 -83.04848,57.42231 -124.68977,31.30615c-41.64129,-26.11616 -53.32966,-82.47505 -26.1067,-125.88111c27.22296,-43.40606 83.04848,-57.42231 124.68977,-31.30615c41.64129,26.11616 53.32966,82.47505 26.1067,125.88111z" fill="#00f3ff" stroke="url(#color-2)" stroke-width="6.5" stroke-linecap="butt"/></g></g></g></svg>