<svg version="1.1" xmlns="http://www.w3.org/2000/svg" xmlns:xlink="http://www.w3.org/1999/xlink" width="413.13011" height="417.80291" viewBox="0,0,413.13011,417.80291"><defs><linearGradient x1="58.43497" y1="181.04245" x2="421.56508" y2="171.95752" gradientUnits="userSpaceOnUse" id="color-1"><stop offset="0" stop-color="#00f3ff"/><stop offset="1" stop-color="#00b2ff"/></linearGradient><linearGradient x1="318.61578" y1="134.76747" x2="160.44896" y2="216.42071" gradientUnits="userSpaceOnUse" id="color-2"><stop offset="0" stop-color="#00c1ff"/><stop offset="1" stop-color="#007fff"/></linearGradient></defs><g transform="translate(-33.435,34.16386)"><g data-paper-data="{&quot;isPaintingLayer&quot;:true}" fill-rule="nonzero" stroke-linejoin="miter" stroke-miterlimit="10" stroke-dasharray="" stroke-dashoffset="0" style="mix-blend-mode: normal"><path d="M232.7153,-5.63902c100.27566,-2.50873 184.82657,77.00398 188.84981,177.5965c4.02321,100.59251 -74.00476,184.17284 -174.2804,186.68157c-100.27566,2.50875 -184.8265,-77.00412 -188.84971,-177.59666c-4.02321,-100.59251 74.00461,-184.1727 174.28031,-186.68142z" fill="url(#color-1)" stroke="#000000" stroke-width="50" stroke-linecap="butt"/><path d="M267.72307,305.3935c-105.78357,17.03765 -149.13761,-76.55169 -149.13761,-76.55169" fill="none" stroke="#ffffff" stroke-width="18.5" stroke-linecap="round"/><path d="M192.52723,50.70655c102.7562,-30.35801 157.66526,56.95482 157.66526,56.95482" data-paper-data="{&quot;index&quot;:null}" fill="none" stroke="#ffffff" stroke-width="18.5" stroke-linecap="round"/><path d="M160.44896,216.42071c-23.50351,-45.52759 -7.15001,-100.7137 36.52654,-123.26161c43.67656,-22.54792 98.13678,-3.91921 121.64029,41.60837c23.50351,45.52759 7.15001,100.7137 -36.52654,123.26161c-43.67656,22.54792 -98.13678,3.91921 -121.64029,-41.60837z" fill="#00f3ff" stroke="url(#color-2)" stroke-width="6.5" stroke-linecap="butt"/></g></g></svg>