<svg version="1.1" xmlns="http://www.w3.org/2000/svg" xmlns:xlink="http://www.w3.org/1999/xlink" width="411.18953" height="416.60484" viewBox="0,0,411.18953,416.60484"><defs><linearGradient x1="366.10236" y1="307.20845" x2="113.89767" y2="45.79152" gradientUnits="userSpaceOnUse" id="color-1"><stop offset="0" stop-color="#00f3ff"/><stop offset="1" stop-color="#00b2ff"/></linearGradient><linearGradient x1="156.09913" y1="146.79002" x2="323.1983" y2="208.12406" gradientUnits="userSpaceOnUse" id="color-2"><stop offset="0" stop-color="#00c1ff"/><stop offset="1" stop-color="#007fff"/></linearGradient></defs><g transform="translate(-34.40525,31.8024)"><g data-paper-data="{&quot;isPaintingLayer&quot;:true}" fill-rule="nonzero" stroke-linejoin="miter" stroke-miterlimit="10" stroke-dasharray="" stroke-dashoffset="0" style="mix-blend-mode: normal"><g><path d="M110.72269,305.01093c-69.64443,-72.18833 -68.22293,-188.24481 3.17495,-259.21938c71.39786,-70.97456 185.73536,-69.9908 255.37979,2.19753c69.64444,72.18833 68.22275,188.24484 -3.17512,259.21941c-71.39786,70.97456 -185.73517,69.99081 -255.37963,-2.19755z" fill="url(#color-1)" stroke="#000000" stroke-width="50" stroke-linecap="butt"/><path d="M316.22707,68.92891c84.07341,66.42368 44.42699,161.64291 44.42699,161.64291" fill="none" stroke="#ffffff" stroke-width="18.5" stroke-linecap="round"/><path d="M164.63125,287.84272c-84.07341,-66.42368 -44.42699,-161.64291 -44.42699,-161.64291" data-paper-data="{&quot;index&quot;:null}" fill="none" stroke="#ffffff" stroke-width="18.5" stroke-linecap="round"/><path d="M323.1983,208.12406c-17.65472,48.09872 -69.37312,73.36035 -115.51628,56.42342c-46.14316,-16.93693 -69.23761,-69.65874 -51.58289,-117.75746c17.65472,-48.09872 69.37312,-73.36035 115.51628,-56.42342c46.14316,16.93693 69.23761,69.65874 51.58289,117.75746z" fill="#00f3ff" stroke="url(#color-2)" stroke-width="6.5" stroke-linecap="butt"/></g></g></g></svg>