<svg version="1.1" xmlns="http://www.w3.org/2000/svg" xmlns:xlink="http://www.w3.org/1999/xlink" width="412.34148" height="412.0467" viewBox="0,0,412.34148,412.0467"><defs><linearGradient x1="61.91914" y1="140.81107" x2="418.08092" y2="212.1889" gradientUnits="userSpaceOnUse" id="color-1"><stop offset="0" stop-color="#00f3ff"/><stop offset="1" stop-color="#00b2ff"/></linearGradient><linearGradient x1="325.89391" y1="153.17015" x2="153.5943" y2="197.85614" gradientUnits="userSpaceOnUse" id="color-2"><stop offset="0" stop-color="#00c1ff"/><stop offset="1" stop-color="#007fff"/></linearGradient></defs><g transform="translate(-33.82932,27.74661)"><g data-paper-data="{&quot;isPaintingLayer&quot;:true}" fill-rule="nonzero" stroke-linejoin="miter" stroke-miterlimit="10" stroke-dasharray="" stroke-dashoffset="0" style="mix-blend-mode: normal"><path d="M273.14129,-2.74661c98.35141,19.71046 163.24307,115.94039 144.93967,214.93548c-18.30343,98.99507 -112.87085,163.26821 -211.22224,143.55776c-98.35141,-19.71044 -163.24297,-115.94051 -144.93954,-214.93561c18.30343,-98.99507 112.87068,-163.26811 211.22212,-143.55763z" fill="url(#color-1)" stroke="#000000" stroke-width="50" stroke-linecap="butt"/><path d="M238.55717,308.3333c-106.93352,-6.7577 -128.5362,-107.61335 -128.5362,-107.61335" fill="none" stroke="#ffffff" stroke-width="18.5" stroke-linecap="round"/><path d="M221.49631,43.32616c106.92429,-6.90234 141.18324,90.38516 141.18324,90.38516" data-paper-data="{&quot;index&quot;:null}" fill="none" stroke="#ffffff" stroke-width="18.5" stroke-linecap="round"/><path d="M153.5943,197.85614c-12.86266,-49.59565 15.28069,-99.80417 62.8599,-112.14386c47.57922,-12.3397 96.57706,17.86223 109.43972,67.45787c12.86266,49.59565 -15.28069,99.80417 -62.8599,112.14386c-47.57922,12.3397 -96.57706,-17.86223 -109.43972,-67.45787z" fill="#00f3ff" stroke="url(#color-2)" stroke-width="6.5" stroke-linecap="butt"/></g></g></svg>