<svg version="1.1" xmlns="http://www.w3.org/2000/svg" xmlns:xlink="http://www.w3.org/1999/xlink" width="252.42837" height="109.23194" viewBox="0,0,252.42837,109.23194"><defs><radialGradient cx="335.9767" cy="176.65185" r="46.2678" gradientUnits="userSpaceOnUse" id="color-1"><stop offset="0" stop-color="#0093f2"/><stop offset="1" stop-color="#00b1d9"/></radialGradient><linearGradient x1="214.99531" y1="166.01984" x2="227.49531" y2="166.01984" gradientUnits="userSpaceOnUse" id="color-2"><stop offset="0" stop-color="#004cda"/><stop offset="1" stop-color="#004cda"/></linearGradient><linearGradient x1="252.02916" y1="163.45419" x2="268.52916" y2="163.45419" gradientUnits="userSpaceOnUse" id="color-3"><stop offset="0" stop-color="#005ad9"/><stop offset="1" stop-color="#006ad9"/></linearGradient><linearGradient x1="233.99851" y1="166.5187" x2="243.99851" y2="166.5187" gradientUnits="userSpaceOnUse" id="color-4"><stop offset="0" stop-color="#004cda"/><stop offset="1" stop-color="#006cd9"/></linearGradient></defs><g transform="translate(-113.78512,-125.38405)"><g data-paper-data="{&quot;isPaintingLayer&quot;:true}" fill-rule="nonzero" stroke-linejoin="miter" stroke-miterlimit="10" stroke-dasharray="" stroke-dashoffset="0" style="mix-blend-mode: normal"><path d="M185.80964,190.11632l1.5,-41l29.5,-12.5l135.5,1.5c0,0 0,0.96296 0,2c0,3.62963 0,24.5 0,24.5l-0.5,51l-106,-3c0,0 -33.87306,12.21232 -56.5,15.5c-0.23853,0.03466 -3.09763,0.19379 -8.88294,0.40366c-9.2713,0.33632 -26.05767,0.80294 -51.61706,1.09634c-23.03143,0.26438 0.83334,-38.5 0.83334,-38.5c0,0 19.93487,-0.35492 29.52354,-0.52564c9.10891,-0.16217 26.64312,-0.47436 26.64312,-0.47436z" fill="#2f97ff" stroke="#2f97ff" stroke-width="10" stroke-linecap="round"/><path d="M361.21489,142.41972c-0.56802,24.01383 0.38578,42.6276 0,69.90481c-0.24038,16.99649 -50.62149,10.93573 -50.57114,0c0.1183,-25.69287 0.0369,-44.90754 0,-69.90481c-0.02333,-15.80254 50.95647,-16.29072 50.57114,0z" data-paper-data="{&quot;index&quot;:null}" fill="url(#color-1)" stroke="#679cff" stroke-width="10" stroke-linecap="butt"/><path d="M200.09518,226.90319l2.33333,-25.58334h48l15.37583,14.12983z" fill="#ffffff" stroke="#cccccc" stroke-width="10" stroke-linecap="butt"/><path d="M220.30758,154.20439l-0.37509,18.75469" fill="none" stroke="#004cda" stroke-width="10" stroke-linecap="round"/><path d="M257.81696,153.07911l0.37509,18.0045" fill="none" stroke="#004cda" stroke-width="10" stroke-linecap="round"/><path d="M266.06901,153.07911l-0.75018,10.12753" fill="none" stroke="#004cda" stroke-width="10" stroke-linecap="round"/><path d="M239.18605,155.07835l0.37509,18.0045" fill="none" stroke="#004cda" stroke-width="10" stroke-linecap="round"/><path d="M221.05776,157.20513l0.37509,17.62941" fill="none" stroke="url(#color-2)" stroke-width="12.5" stroke-linecap="round"/><path d="M260.15945,157.82778l0.23942,11.25282" fill="none" stroke="url(#color-3)" stroke-width="16.5" stroke-linecap="round"/><path d="M239.18605,175.33341l-0.37509,-17.62941" fill="none" stroke="url(#color-4)" stroke-width="10" stroke-linecap="round"/><path d="M215.96893,151.3784c12.85269,0.13362 41.47194,0.15796 56.06941,0.17093c9.09572,0.00808 -12.45649,26.34094 -18.30803,26.39155c-13.74787,0.11891 -24.02816,0.29872 -37.40275,0.49573c-8.45503,0.12455 -9.07775,-27.14886 -0.35863,-27.05821z" data-paper-data="{&quot;index&quot;:null}" fill="none" stroke="#679cff" stroke-width="10" stroke-linecap="butt"/><path d="M229.93464,152.06984l-0.25,21.75" fill="none" stroke="#679cff" stroke-width="10" stroke-linecap="round"/><path d="M248.43464,151.56984l0.25,23.25" fill="none" stroke="#679cff" stroke-width="10" stroke-linecap="round"/></g></g></svg>