<svg version="1.1" xmlns="http://www.w3.org/2000/svg" xmlns:xlink="http://www.w3.org/1999/xlink" width="497.85262" height="210.62476" viewBox="0,0,497.85262,210.62476"><g transform="translate(-120.3002,0.74468)"><g data-paper-data="{&quot;isPaintingLayer&quot;:true}" fill-rule="nonzero" stroke-width="2" stroke-linejoin="miter" stroke-miterlimit="10" stroke-dasharray="" stroke-dashoffset="0" style="mix-blend-mode: normal"><path d="M466.43262,4.11151c62.01149,10.18435 115.97595,53.54287 135.31905,87.28079c19.3431,33.73792 35.04664,48.16615 -48.03826,64.95313c-83.0849,16.78698 -162.60106,-19.88802 -216.51049,-11.50211c-53.90943,8.38592 35.22419,73.26429 -21.65104,62.92335c-56.87524,-10.34097 -197.8137,-49.11498 -194.18283,-102.1659c3.63086,-53.05092 20.60621,-48.92495 109.60841,-75.10207c89.0022,-26.17712 173.44365,-36.5716 235.45514,-26.38722z" fill="#00e6ff" stroke="#00e6ff" stroke-linecap="round"/><path d="M329.76035,48.76676c0,0.37367 -1.51461,0.67659 -3.38298,0.67659c-1.86837,0 -3.38298,-0.30292 -3.38298,-0.67659c0,-0.37367 1.51461,-0.67659 3.38298,-0.67659c1.86837,0 3.38298,0.30292 3.38298,0.67659z" fill="none" stroke="#ffffff" stroke-linecap="butt"/></g></g></svg>