<svg version="1.1" xmlns="http://www.w3.org/2000/svg" xmlns:xlink="http://www.w3.org/1999/xlink" width="497.85263" height="210.62476" viewBox="0,0,497.85263,210.62476"><g transform="translate(-120.3002,0.74468)"><g data-paper-data="{&quot;isPaintingLayer&quot;:true}" fill-rule="nonzero" stroke-linejoin="miter" stroke-miterlimit="10" stroke-dasharray="" stroke-dashoffset="0" style="mix-blend-mode: normal"><path d="M466.43263,4.11151c62.01149,10.18435 115.97595,53.54287 135.31905,87.28079c19.3431,33.73792 35.04664,48.16615 -48.03826,64.95313c-83.0849,16.78698 -162.60106,-19.88802 -216.51049,-11.50211c-53.90943,8.38592 35.22419,73.26429 -21.65104,62.92335c-56.87524,-10.34097 -197.8137,-49.11498 -194.18283,-102.1659c3.63086,-53.05092 20.60621,-48.92495 109.60841,-75.10207c89.0022,-26.17712 173.44365,-36.5716 235.45514,-26.38722z" fill="#00e6ff" stroke="#00e6ff" stroke-width="2" stroke-linecap="round"/><path d="M481.20491,62.05806c0,2.97898 -7.24498,5.39391 -16.18191,5.39391c-8.93714,0 -16.18191,-2.41493 -16.18191,-5.39391c0,-2.97898 7.24498,-5.39391 16.18191,-5.39391c8.93714,0 16.18191,2.41493 16.18191,5.39391z" fill="none" stroke="#ffffff" stroke-width="0.5" stroke-linecap="butt"/><path d="M241.24381,143.15179c0,0.9558 -2.32454,1.7306 -5.19192,1.7306c-2.86746,0 -5.19189,-0.7748 -5.19189,-1.7306c0,-0.9558 2.32451,-1.73063 5.19189,-1.73063c2.86746,0 5.19192,0.77483 5.19192,1.73063z" fill="none" stroke="#ffffff" stroke-width="2" stroke-linecap="butt"/></g></g></svg>