<svg version="1.1" xmlns="http://www.w3.org/2000/svg" xmlns:xlink="http://www.w3.org/1999/xlink" width="497.85263" height="210.62476" viewBox="0,0,497.85263,210.62476"><g transform="translate(-120.3002,0.74468)"><g data-paper-data="{&quot;isPaintingLayer&quot;:true}" fill-rule="nonzero" stroke-linejoin="miter" stroke-miterlimit="10" stroke-dasharray="" stroke-dashoffset="0" style="mix-blend-mode: normal"><path d="M466.43263,4.1115c62.01149,10.18435 115.97595,53.54287 135.31905,87.28079c19.3431,33.73792 35.04664,48.16615 -48.03826,64.95313c-83.0849,16.78698 -162.60106,-19.88802 -216.51049,-11.50211c-53.90943,8.38592 35.22419,73.26429 -21.65104,62.92335c-56.87524,-10.34097 -197.8137,-49.11498 -194.18283,-102.1659c3.63086,-53.05092 20.60621,-48.92495 109.60841,-75.10207c89.0022,-26.17712 173.44365,-36.5716 235.45514,-26.38722z" fill="#00e6ff" stroke="#00e6ff" stroke-width="2" stroke-linecap="round"/><path d="M346.40394,51.59954c0,2.21376 -8.97337,4.00838 -20.04241,4.00838c-11.06906,0 -20.04241,-1.79462 -20.04241,-4.00838c0,-2.21376 8.97337,-4.00838 20.04241,-4.00838c11.06906,0 20.04241,1.79462 20.04241,4.00838z" fill="none" stroke="#ffffff" stroke-width="0.5" stroke-linecap="butt"/><path d="M471.16876,61.41907c0,1.12101 -2.72633,2.02976 -6.08935,2.02976c-3.3631,0 -6.08935,-0.90875 -6.08935,-2.02976c0,-1.12101 2.72633,-2.02976 6.08935,-2.02976c3.3631,0 6.08935,0.90875 6.08935,2.02976z" fill="none" stroke="#ffffff" stroke-width="1" stroke-linecap="butt"/></g></g></svg>