<svg version="1.1" xmlns="http://www.w3.org/2000/svg" xmlns:xlink="http://www.w3.org/1999/xlink" width="497.85263" height="210.62476" viewBox="0,0,497.85263,210.62476"><g transform="translate(-120.3002,0.74468)"><g data-paper-data="{&quot;isPaintingLayer&quot;:true}" fill-rule="nonzero" stroke-linejoin="miter" stroke-miterlimit="10" stroke-dasharray="" stroke-dashoffset="0" style="mix-blend-mode: normal"><path d="M466.43263,4.11151c62.01149,10.18435 115.97595,53.54287 135.31905,87.28079c19.3431,33.73792 35.04664,48.16615 -48.03826,64.95313c-83.0849,16.78698 -162.60106,-19.88802 -216.51049,-11.50211c-53.90943,8.38592 35.22419,73.26429 -21.65104,62.92335c-56.87524,-10.34097 -197.8137,-49.11498 -194.18283,-102.1659c3.63086,-53.05092 20.60621,-48.92495 109.60841,-75.10207c89.0022,-26.17712 173.44365,-36.5716 235.45514,-26.38722z" fill="#00e6ff" stroke="#00e6ff" stroke-width="2" stroke-linecap="round"/><path d="M175.49661,65.68163c0,0.74734 -1.66607,1.3532 -3.72128,1.3532c-2.05519,0 -3.72128,-0.60583 -3.72128,-1.3532c0,-0.74734 1.66607,-1.3532 3.72128,-1.3532c2.05519,0 3.72128,0.60583 3.72128,1.3532z" fill="none" stroke="#ffffff" stroke-width="2.5" stroke-linecap="butt"/><path d="M243.95021,143.78524c0,1.70696 -4.15138,3.09067 -9.27223,3.09067c-5.12101,0 -9.27221,-1.38371 -9.27221,-3.09067c0,-1.70696 4.15133,-3.09073 9.27221,-3.09073c5.12101,0 9.27223,1.38377 9.27223,3.09073z" fill="none" stroke="#ffffff" stroke-width="1.5" stroke-linecap="butt"/></g></g></svg>