<svg version="1.1" xmlns="http://www.w3.org/2000/svg" xmlns:xlink="http://www.w3.org/1999/xlink" width="497.85263" height="210.62476" viewBox="0,0,497.85263,210.62476"><g transform="translate(-120.30022,0.74468)"><g data-paper-data="{&quot;isPaintingLayer&quot;:true}" fill-rule="nonzero" stroke-linejoin="miter" stroke-miterlimit="10" stroke-dasharray="" stroke-dashoffset="0" style="mix-blend-mode: normal"><path d="M466.43265,4.11151c62.01149,10.18435 115.97595,53.54287 135.31905,87.28079c19.3431,33.73792 35.04664,48.16615 -48.03826,64.95313c-83.0849,16.78698 -162.60106,-19.88802 -216.51049,-11.50211c-53.90943,8.38592 35.22419,73.26429 -21.65104,62.92335c-56.87524,-10.34097 -197.8137,-49.11498 -194.18283,-102.1659c3.63086,-53.05092 20.60621,-48.92495 109.60841,-75.10207c89.0022,-26.17712 173.44365,-36.5716 235.45514,-26.38722z" fill="#00e6ff" stroke="#00e6ff" stroke-width="2" stroke-linecap="round"/><path d="M180.79661,69.72829c0,1.81171 -4.03892,3.28047 -9.02129,3.28047c-4.98227,0 -9.02129,-1.46869 -9.02129,-3.28047c0,-1.81171 4.03892,-3.28047 9.02129,-3.28047c4.98227,0 9.02129,1.46869 9.02129,3.28047z" fill="none" stroke="#ffffff" stroke-width="1.5" stroke-linecap="butt"/><path d="M250.23174,146.88482c0,3.2816 -7.98099,5.94181 -17.82578,5.94181c-9.8451,0 -17.82572,-2.66018 -17.82572,-5.94181c0,-3.2816 7.98089,-5.94189 17.82572,-5.94189c9.8451,0 17.82578,2.66029 17.82578,5.94189z" fill="none" stroke="#ffffff" stroke-width="0.5" stroke-linecap="butt"/></g></g></svg>